<svg xmlns="http://www.w3.org/2000/svg" xmlns:xlink="http://www.w3.org/1999/xlink" width="21" height="21.048797607421875" viewBox="0 0 21 21.048797607421875" fill="none">
<path   fill-rule="evenodd"  fill="#FFC300"  d="M0.148041 4.19364L4.14641 0.195274C4.34167 1.27107e-05 4.65825 1.32136e-05 4.85351 0.195274C5.04877 0.390534 5.04877 0.707113 4.85351 0.902374L1.7071 4.04878L12.5 4.04878C17.1944 4.04878 21 7.85436 21 12.5488C21 17.2432 17.1944 21.0488 12.5 21.0488L4.5 21.0488C4.22386 21.0488 4 20.8249 4 20.5488C4 20.2727 4.22386 20.0488 4.5 20.0488L12.5 20.0488C16.6421 20.0488 20 16.6909 20 12.5488C20 8.40664 16.6421 5.04878 12.5 5.04878L1.7071 5.04878L4.85351 8.19519C5.04877 8.39045 5.04877 8.70704 4.85351 8.90229C4.65825 9.09755 4.34167 9.09755 4.14641 8.90229L0.14802 4.9039L0.14645 4.90233C0.141319 4.8972 0.136323 4.89198 0.131462 4.88669C0.0923501 4.8441 0.0619657 4.79637 0.040309 4.74579C0.0143661 4.68533 0 4.61873 0 4.54878C0 4.47883 0.0143661 4.41223 0.0403089 4.35177C0.0614562 4.30238 0.0909254 4.25571 0.128716 4.21388L0.132251 4.21001C0.136882 4.20499 0.141615 4.20006 0.146446 4.19523L0.148041 4.19364Z">
</path>
<path   fill-rule="evenodd"  fill="#000000" opacity="0.5" d="M0.148041 4.19364L4.14641 0.195274C4.34167 1.27107e-05 4.65825 1.32136e-05 4.85351 0.195274C5.04877 0.390534 5.04877 0.707113 4.85351 0.902374L1.7071 4.04878L12.5 4.04878C17.1944 4.04878 21 7.85436 21 12.5488C21 17.2432 17.1944 21.0488 12.5 21.0488L4.5 21.0488C4.22386 21.0488 4 20.8249 4 20.5488C4 20.2727 4.22386 20.0488 4.5 20.0488L12.5 20.0488C16.6421 20.0488 20 16.6909 20 12.5488C20 8.40664 16.6421 5.04878 12.5 5.04878L1.7071 5.04878L4.85351 8.19519C5.04877 8.39045 5.04877 8.70704 4.85351 8.90229C4.65825 9.09755 4.34167 9.09755 4.14641 8.90229L0.14802 4.9039L0.14645 4.90233C0.141319 4.8972 0.136323 4.89198 0.131462 4.88669C0.0923501 4.8441 0.0619657 4.79637 0.040309 4.74579C0.0143661 4.68533 0 4.61873 0 4.54878C0 4.47883 0.0143661 4.41223 0.0403089 4.35177C0.0614562 4.30238 0.0909254 4.25571 0.128716 4.21388L0.132251 4.21001C0.136882 4.20499 0.141615 4.20006 0.146446 4.19523L0.148041 4.19364Z">
</path>
</svg>
