<svg xmlns="http://www.w3.org/2000/svg" xmlns:xlink="http://www.w3.org/1999/xlink" width="13.5" height="17.82061767578125" viewBox="0 0 13.5 17.82061767578125" fill="none">
<path     fill="#FFC300"  d="M6.75 17.3206C10.1811 17.3206 12.9999 14.6015 12.9999 11.1115C12.9999 10.2547 12.9564 9.33625 12.4815 7.90879C12.0065 6.48138 11.9109 6.29713 11.4087 5.41559C11.1942 7.21454 10.0463 7.96429 9.75463 8.18838C9.75463 7.95525 9.06021 5.37725 8.00733 3.83475C6.97375 2.32063 5.56808 1.32726 4.74388 0.653961C4.74388 1.93303 4.38412 3.83475 3.86892 4.80371C3.35371 5.77267 3.25696 5.80796 2.61342 6.52904C1.96992 7.25013 1.67454 7.47284 1.13642 8.34775C0.598317 9.22271 0.5 10.388 0.5 11.2448C0.5 14.7349 3.31888 17.3206 6.75 17.3206Z">
</path>
<path    stroke="rgba(255, 195, 0, 1)" stroke-width="1" stroke-linejoin="round"   d="M6.75 17.3206C10.1811 17.3206 12.9999 14.6015 12.9999 11.1115C12.9999 10.2547 12.9564 9.33625 12.4815 7.90879C12.0065 6.48138 11.9109 6.29713 11.4087 5.41559C11.1942 7.21454 10.0463 7.96429 9.75463 8.18838C9.75463 7.95525 9.06021 5.37725 8.00733 3.83475C6.97375 2.32063 5.56808 1.32726 4.74388 0.653961C4.74388 1.93303 4.38412 3.83475 3.86892 4.80371C3.35371 5.77267 3.25696 5.80796 2.61342 6.52904C1.96992 7.25013 1.67454 7.47284 1.13642 8.34775C0.598317 9.22271 0.5 10.388 0.5 11.2448C0.5 14.7349 3.31888 17.3206 6.75 17.3206Z">
</path>
<path    stroke="rgba(0, 0, 0, 0.5)" stroke-width="1" stroke-linejoin="round"   d="M6.75 17.3206C10.1811 17.3206 12.9999 14.6015 12.9999 11.1115C12.9999 10.2547 12.9564 9.33625 12.4815 7.90879C12.0065 6.48138 11.9109 6.29713 11.4087 5.41559C11.1942 7.21454 10.0463 7.96429 9.75463 8.18838C9.75463 7.95525 9.06021 5.37725 8.00733 3.83475C6.97375 2.32063 5.56808 1.32726 4.74388 0.653961C4.74388 1.93303 4.38412 3.83475 3.86892 4.80371C3.35371 5.77267 3.25696 5.80796 2.61342 6.52904C1.96992 7.25013 1.67454 7.47284 1.13642 8.34775C0.598317 9.22271 0.5 10.388 0.5 11.2448C0.5 14.7349 3.31888 17.3206 6.75 17.3206Z">
</path>
</svg>
