<svg xmlns="http://www.w3.org/2000/svg" xmlns:xlink="http://www.w3.org/1999/xlink" width="8.485276222229004" height="8.48529052734375" viewBox="0 0 8.485276222229004 8.48529052734375" fill="none">
<path d="M3.18199 7.42463L2.12133 6.36397C0.94976 5.1924 0.949759 3.2929 2.12133 2.12133C3.2929 0.949759 5.1924 0.949759 6.36397 2.12133C7.53554 3.2929 7.53554 5.1924 6.36397 6.36397L5.30331 7.42463C4.71752 8.01042 3.76778 8.01042 3.18199 7.42463ZM5.65672 2.82858C4.87567 2.04753 3.60934 2.04753 2.82829 2.82858C2.04725 3.60963 2.04725 4.87596 2.82829 5.657C3.60934 6.43805 4.87567 6.43805 5.65672 5.657C6.43777 4.87596 6.43777 3.60963 5.65672 2.82858ZM4.94976 3.53554C4.55924 3.14502 3.92606 3.14502 3.53554 3.53554C3.14502 3.92606 3.14502 4.55924 3.53554 4.94976C3.92606 5.34028 4.55924 5.34028 4.94976 4.94976C5.34028 4.55924 5.34028 3.92606 4.94976 3.53554Z" fill-rule="evenodd"  fill="#FFC300" >
</path>
</svg>
