<svg xmlns="http://www.w3.org/2000/svg" xmlns:xlink="http://www.w3.org/1999/xlink" width="21" height="21" viewBox="0 0 21 21" fill="none">
<path d="M12.5 0L8.5 0C3.80558 0 0 3.80558 0 8.5L0 12.5C0 17.1944 3.80558 21 8.5 21L12.5 21C17.1944 21 21 17.1944 21 12.5L21 8.5C21 3.80558 17.1944 0 12.5 0ZM1 8.5C1 4.35786 4.35786 1 8.5 1L12.5 1C16.6421 1 20 4.35786 20 8.5L20 12.5C20 16.6421 16.6421 20 12.5 20L8.5 20C4.35786 20 1 16.6421 1 12.5L1 8.5ZM10 6.5C10 6.22386 10.2239 6 10.5 6C10.7761 6 11 6.22386 11 6.5L11 10L14.5 10C14.7761 10 15 10.2239 15 10.5C15 10.7761 14.7761 11 14.5 11L11 11L11 14.5C11 14.7761 10.7761 15 10.5 15C10.2239 15 10 14.7761 10 14.5L10 11L6.5 11C6.22386 11 6 10.7761 6 10.5C6 10.2239 6.22386 10 6.5 10L10 10L10 6.5Z" fill-rule="evenodd"  fill="#000000" >
</path>
</svg>
