<svg xmlns="http://www.w3.org/2000/svg" xmlns:xlink="http://www.w3.org/1999/xlink" width="21" height="21.0625" viewBox="0 0 21 21.0625" fill="none">
<path d="M20 14.5L20 4.5C20 2.567 18.433 1 16.5 1L4.5 1C2.567 1 1 2.567 1 4.5L1 14.5C1 16.4299 2.56192 17.9949 4.49058 18C4.51219 17.9996 4.53372 18.0006 4.55504 18.003C4.69677 18.0188 4.82923 18.0949 4.9131 18.2182C4.92791 18.2399 4.94105 18.2628 4.95236 18.2867L5.74145 19.8649L10.3043 18.0398C10.3318 18.0281 10.3605 18.0188 10.3902 18.0121C10.4314 18.0028 10.4729 17.9988 10.5139 18L16.5 18C18.433 18 20 16.433 20 14.5ZM10.5963 19L16.5 19C18.9853 19 21 16.9853 21 14.5L21 4.5C21 2.01472 18.9853 0 16.5 0L4.5 0C2.01472 0 0 2.01472 0 4.5L0 14.5C0 16.8796 1.847 18.8278 4.18559 18.9892L5.04971 20.7174C5.16279 20.9522 5.44011 21.0625 5.6857 20.9643L10.5963 19ZM5.5 7C5.22386 7 5 6.77614 5 6.5C5 6.22386 5.22386 6 5.5 6L15.5 6C15.7761 6 16 6.22386 16 6.5C16 6.77614 15.7761 7 15.5 7L5.5 7ZM5.5 13C5.22386 13 5 12.7761 5 12.5C5 12.2239 5.22386 12 5.5 12L15.5 12C15.7761 12 16 12.2239 16 12.5C16 12.7761 15.7761 13 15.5 13L5.5 13Z" fill-rule="evenodd"  fill="#000000" >
</path>
</svg>
