<svg xmlns="http://www.w3.org/2000/svg" xmlns:xlink="http://www.w3.org/1999/xlink" width="21" height="21" viewBox="0 0 21 21" fill="none">
<path d="M21 10.5C21 16.299 16.299 21 10.5 21C4.70101 21 0 16.299 0 10.5C0 4.70101 4.70101 0 10.5 0C16.299 0 21 4.70101 21 10.5ZM20 10.5C20 5.2533 15.7467 1 10.5 1C5.2533 1 1 5.2533 1 10.5C1 15.7467 5.2533 20 10.5 20C15.7467 20 20 15.7467 20 10.5ZM6.5 11C6.22386 11 6 10.7761 6 10.5C6 10.2239 6.22386 10 6.5 10L14.5 10C14.7761 10 15 10.2239 15 10.5C15 10.7761 14.7761 11 14.5 11L6.5 11Z" fill-rule="evenodd"  fill="#CCCCCC" >
</path>
</svg>
