<svg xmlns="http://www.w3.org/2000/svg" xmlns:xlink="http://www.w3.org/1999/xlink" width="20" height="20" viewBox="0 0 20 20" fill="none">
<circle cx="10" cy="10" r="10"   fill="#FE8A7D" >
</circle>
<path d="M6.64645 7.35355C6.45118 7.15829 6.45118 6.84171 6.64645 6.64645C6.84171 6.45118 7.15829 6.45118 7.35355 6.64645L10 9.29294L12.6464 6.6466C12.8416 6.45134 13.1582 6.45134 13.3535 6.6466C13.5487 6.84186 13.5487 7.15844 13.3535 7.3537L10.7071 10L13.3535 12.6464C13.5487 12.8416 13.5487 13.1582 13.3535 13.3535C13.1582 13.5487 12.8416 13.5487 12.6464 13.3535L10 10.7071L7.35355 13.3536C7.15829 13.5489 6.84171 13.5489 6.64645 13.3536C6.45118 13.1584 6.45118 12.8418 6.64645 12.6465L9.29294 10L6.64645 7.35355Z" fill-rule="evenodd"  fill="#FFFFFF" >
</path>
</svg>
