<svg xmlns="http://www.w3.org/2000/svg" xmlns:xlink="http://www.w3.org/1999/xlink" width="21" height="21.001922607421875" viewBox="0 0 21 21.001922607421875" fill="none">
<path d="M7.08765 0.219054C7.07254 0.241047 7.05913 0.264309 7.04764 0.288648L6.191 2.00193L4.5 2.00193C2.01472 2.00193 0 4.01665 0 6.50193L0 16.5019C0 18.9872 2.01472 21.0019 4.5 21.0019L16.5 21.0019C18.9853 21.0019 21 18.9872 21 16.5019L21 6.50193C21 4.01665 18.9853 2.00193 16.5 2.00193L14.809 2.00193L13.9524 0.288645C13.9411 0.264714 13.9279 0.241824 13.9131 0.220158C13.8746 0.163515 13.8258 0.116828 13.7705 0.0813711C13.6873 0.0279221 13.5894 -1.1352e-05 13.4899 0.00192538L7.51008 0.00192538C7.48815 0.00149844 7.4663 0.00252306 7.44466 0.0049526C7.36599 0.0136148 7.29281 0.0405307 7.22945 0.0813727C7.17458 0.116598 7.12607 0.162908 7.08765 0.219054ZM13.191 1.00193L7.809 1.00193L7.309 2.00193L13.691 2.00193L13.191 1.00193ZM16.5 3.00193L4.5 3.00193C2.567 3.00193 1 4.56893 1 6.50193L1 16.5019C1 18.4349 2.567 20.0019 4.5 20.0019L16.5 20.0019C18.433 20.0019 20 18.4349 20 16.5019L20 6.50193C20 4.56893 18.433 3.00193 16.5 3.00193ZM16 11.5019C16 14.5395 13.5376 17.0019 10.5 17.0019C7.46243 17.0019 5 14.5395 5 11.5019C5 8.46436 7.46243 6.00193 10.5 6.00193C13.5376 6.00193 16 8.46436 16 11.5019ZM15 11.5019C15 9.01665 12.9853 7.00193 10.5 7.00193C8.01472 7.00193 6 9.01665 6 11.5019C6 13.9872 8.01472 16.0019 10.5 16.0019C12.9853 16.0019 15 13.9872 15 11.5019Z" fill-rule="evenodd"  fill="#CCCCCC" >
</path>
</svg>
