<svg xmlns="http://www.w3.org/2000/svg" xmlns:xlink="http://www.w3.org/1999/xlink" width="14.14208984375" height="14.14208984375" viewBox="0 0 14.14208984375 14.14208984375" fill="none">
<path d="M5.30352 12.3744L3.53576 10.6067C1.58314 8.65406 1.58314 5.48824 3.53575 3.53562C5.48837 1.583 8.6542 1.583 10.6068 3.53562C12.5594 5.48823 12.5594 8.65406 10.6068 10.6067L8.83905 12.3744C7.86275 13.3508 6.27983 13.3508 5.30352 12.3744ZM9.42831 4.71413C8.12656 3.41238 6.01601 3.41238 4.71426 4.71413C3.41252 6.01587 3.41252 8.12642 4.71427 9.42817C6.01601 10.7299 8.12656 10.7299 9.42831 9.42817C10.7301 8.12642 10.7301 6.01587 9.42831 4.71413ZM8.2498 5.89264C7.59892 5.24176 6.54365 5.24176 5.89278 5.89264C5.2419 6.54351 5.2419 7.59879 5.89278 8.24966C6.54365 8.90053 7.59893 8.90053 8.2498 8.24966C8.90067 7.59879 8.90067 6.54351 8.2498 5.89264Z" fill-rule="evenodd"  fill="#FFC300" >
</path>
</svg>
