<svg xmlns="http://www.w3.org/2000/svg" xmlns:xlink="http://www.w3.org/1999/xlink" width="30" height="30" viewBox="0 0 30 30" fill="none">
<path   fill="rgba(102, 102, 102, 1)"  d="M26.5 15C26.5 21.3513 21.3513 26.5 15 26.5L10.2268 26.5L9.00945 26.5C5.97631 26.5 3.5 24.0412 3.5 21.008L3.5 20.0426L3.5 15C3.5 8.64873 8.64873 3.5 15 3.5C21.3513 3.5 26.5 8.64873 26.5 15Q26.5 15.0492 26.4904 15.0975Q26.4808 15.1458 26.4619 15.1913Q26.4431 15.2368 26.4157 15.2778Q26.3884 15.3187 26.3536 15.3536Q26.3187 15.3884 26.2778 15.4157Q26.2368 15.4431 26.1913 15.4619Q26.1458 15.4808 26.0975 15.4904Q26.0492 15.5 26 15.5Q25.9508 15.5 25.9025 15.4904Q25.8542 15.4808 25.8087 15.4619Q25.7632 15.4431 25.7222 15.4157Q25.6813 15.3884 25.6464 15.3536Q25.6116 15.3187 25.5843 15.2778Q25.5569 15.2368 25.5381 15.1913Q25.5192 15.1458 25.5096 15.0975Q25.5 15.0492 25.5 15C25.5 9.20101 20.799 4.5 15 4.5C9.20101 4.5 4.5 9.20101 4.5 15L4.5 20.0426L4.5 21.008C4.5 23.4889 6.5286 25.5 9.00945 25.5L10.2268 25.5L15 25.5C20.799 25.5 25.5 20.799 25.5 15Q25.5 14.9508 25.5096 14.9025Q25.5192 14.8542 25.5381 14.8087Q25.5569 14.7632 25.5843 14.7222Q25.6116 14.6813 25.6464 14.6464Q25.6813 14.6116 25.7222 14.5843Q25.7632 14.5569 25.8087 14.5381Q25.8542 14.5192 25.9025 14.5096Q25.9508 14.5 26 14.5Q26.0492 14.5 26.0975 14.5096Q26.1458 14.5192 26.1913 14.5381Q26.2368 14.5569 26.2778 14.5843Q26.3187 14.6116 26.3536 14.6464Q26.3884 14.6813 26.4157 14.7222Q26.4431 14.7632 26.4619 14.8087Q26.4808 14.8542 26.4904 14.9025Q26.5 14.9508 26.5 15Z">
</path>
<path    stroke="rgba(102, 102, 102, 1)" stroke-width="1" stroke-linejoin="round" stroke-linecap="round"  d="M11 12L19 12">
</path>
<path    stroke="rgba(102, 102, 102, 1)" stroke-width="1" stroke-linejoin="round" stroke-linecap="round"  d="M10 18L19 18">
</path>
</svg>
