<svg xmlns="http://www.w3.org/2000/svg" xmlns:xlink="http://www.w3.org/1999/xlink" width="21" height="21" viewBox="0 0 21 21" fill="none">
<path d="M10.5 0C14.0899 0 17 2.91015 17 6.5L17 10.5C17 14.0899 14.0899 17 10.5 17C6.91015 17 4 14.0899 4 10.5L4 6.5C4 2.91015 6.91015 0 10.5 0ZM10.5 1C7.46243 1 5 3.46243 5 6.5L5 10.5C5 13.5376 7.46243 16 10.5 16C13.5376 16 16 13.5376 16 10.5L16 6.5C16 3.46243 13.5376 1 10.5 1ZM10.5 20C5.2533 20 1 15.7467 1 10.5C1 10.2239 0.776142 10 0.5 10C0.223858 10 0 10.2239 0 10.5C0 16.299 4.70101 21 10.5 21C16.299 21 21 16.299 21 10.5C21 10.2239 20.7761 10 20.5 10C20.2239 10 20 10.2239 20 10.5C20 15.7467 15.7467 20 10.5 20Z" fill-rule="evenodd"  fill="#CCCCCC" >
</path>
</svg>
