<svg xmlns="http://www.w3.org/2000/svg" xmlns:xlink="http://www.w3.org/1999/xlink" width="21" height="21" viewBox="0 0 21 21" fill="none">
<path d="M5.5 0L15.5 0C18.5376 0 21 2.46243 21 5.5L21 15.5C21 18.5376 18.5376 21 15.5 21L5.5 21C2.46243 21 0 18.5376 0 15.5L0 5.5C0 2.46243 2.46243 0 5.5 0ZM15.5 1C15.669 1 15.8358 1.00932 16 1.02746L16 9.691L12.7236 8.0528C12.6401 8.01103 12.5504 7.99484 12.4636 8.00126C12.4108 8.00508 12.3579 8.01739 12.3068 8.03883C12.2947 8.04389 12.2829 8.04941 12.2712 8.0554L9 9.691L9 1L15.5 1ZM12.5 9.059L8.73322 10.9424C8.69373 10.9633 8.65111 10.979 8.60624 10.9887C8.55256 11.0004 8.49811 11.0029 8.44496 10.997C8.29627 10.9807 8.16718 10.8992 8.0869 10.7818C8.05119 10.7295 8.02514 10.6702 8.01131 10.6062C8.00294 10.5679 7.99925 10.5291 8 10.4907L8 1L5.5 1C3.01472 1 1 3.01472 1 5.5L1 15.5C1 17.9853 3.01472 20 5.5 20L15.5 20C17.9853 20 20 17.9853 20 15.5L20 5.5C20 3.54067 18.7478 1.87381 17 1.25606L17 10.5C17 10.7691 16.7873 10.9886 16.5209 10.9996C16.4859 11.0011 16.4506 10.9989 16.4155 10.9929C16.3626 10.9839 16.3126 10.9666 16.2668 10.9424L12.5 9.059Z" fill-rule="evenodd"  fill="#000000" >
</path>
</svg>
