<svg xmlns="http://www.w3.org/2000/svg" xmlns:xlink="http://www.w3.org/1999/xlink" width="20.000030517578125" height="20" viewBox="0 0 20.000030517578125 20" fill="none">
<path d="M14.375 12.5L16.25 12.5C18.3211 12.5 20 14.1789 20 16.25C20 18.3211 18.3211 20 16.25 20C14.179 20 12.5 18.3211 12.5 16.25L12.5 14.375C12.5 13.3395 13.3395 12.5 14.375 12.5ZM16.25 18.75C17.6307 18.75 18.75 17.6307 18.75 16.25C18.75 14.8693 17.6307 13.75 16.25 13.75C14.8693 13.75 13.75 14.8693 13.75 16.25C13.75 17.6307 14.8693 18.75 16.25 18.75ZM16.25 17.5C16.9404 17.5 17.5 16.9404 17.5 16.25C17.5 15.5596 16.9404 15 16.25 15C15.5597 15 15 15.5596 15 16.25C15 16.9404 15.5597 17.5 16.25 17.5Z" fill-rule="evenodd"  fill="#FFC300" >
</path>
<path d="M7.5 3.75C7.5 1.67893 5.82107 0 3.75 0C1.67893 0 0 1.67893 0 3.75C0 5.82107 1.67893 7.5 3.75 7.5L4.375 7.5C5.75571 7.5 6.875 8.61929 6.875 10C6.875 11.3807 5.75571 12.5 4.375 12.5L3.75 12.5C1.67893 12.5 0 14.1789 0 16.25C0 18.3211 1.67893 20 3.75 20C5.82107 20 7.5 18.3211 7.5 16.25L7.5 15.625C7.5 14.2443 8.61929 13.125 10 13.125C11.7259 13.125 13.125 11.7259 13.125 10C13.125 8.61929 14.2443 7.5 15.625 7.5L16.25 7.5C18.3211 7.5 20 5.82107 20 3.75C20 1.67893 18.3211 0 16.25 0C14.1789 0 12.5 1.67893 12.5 3.75L12.5 4.375C12.5 5.75571 11.3807 6.875 10 6.875C8.61929 6.875 7.5 5.75571 7.5 4.375L7.5 3.75Z" fill-rule="evenodd"  fill="#000000" >
</path>
</svg>
