<svg xmlns="http://www.w3.org/2000/svg" xmlns:xlink="http://www.w3.org/1999/xlink" width="20" height="20" viewBox="0 0 20 20" fill="none">
<path   fill="rgba(0, 0, 0, 1)"  d="M4.58333 2.83325L15.4167 2.83325C16.153 2.83325 16.75 3.43021 16.75 4.16659L16.75 17.4999C16.75 18.2363 16.153 18.8333 15.4167 18.8333L4.58333 18.8333C3.84695 18.8333 3.25 18.2363 3.25 17.4999L3.25 4.16659C3.25 3.43021 3.84695 2.83325 4.58333 2.83325ZM4.58333 3.83325C4.39924 3.83325 4.25 3.98249 4.25 4.16659L4.25 17.4999C4.25 17.684 4.39924 17.8333 4.58333 17.8333L15.4167 17.8333C15.6008 17.8333 15.75 17.684 15.75 17.4999L15.75 4.16659C15.75 3.98249 15.6008 3.83325 15.4167 3.83325L4.58333 3.83325Z">
</path>
<path    stroke="rgba(0, 0, 0, 1)" stroke-width="1" stroke-linejoin="round" stroke-linecap="round"  d="M7.5 1.66675L7.5 4.16675">
</path>
<path    stroke="rgba(0, 0, 0, 1)" stroke-width="1" stroke-linejoin="round" stroke-linecap="round"  d="M12.5 1.66675L12.5 4.16675">
</path>
<path    stroke="rgba(0, 0, 0, 1)" stroke-width="1" stroke-linejoin="round" stroke-linecap="round"  d="M6.66675 7.91675L13.3334 7.91675">
</path>
<path    stroke="rgba(0, 0, 0, 1)" stroke-width="1" stroke-linejoin="round" stroke-linecap="round"  d="M6.66675 11.25L11.6667 11.25">
</path>
<path    stroke="rgba(0, 0, 0, 1)" stroke-width="1" stroke-linejoin="round" stroke-linecap="round"  d="M6.66675 14.5833L10.0001 14.5833">
</path>
</svg>
