<svg xmlns="http://www.w3.org/2000/svg" xmlns:xlink="http://www.w3.org/1999/xlink" width="21" height="21" viewBox="0 0 21 21" fill="none">
<path d="M1 5.5C1 3.01472 3.01472 1 5.5 1C5.77614 1 6 0.776142 6 0.5C6 0.223858 5.77614 0 5.5 0C2.46243 0 0 2.46243 0 5.5L0 15.5C0 18.5376 2.46243 21 5.5 21L15.5 21C18.5376 21 21 18.5376 21 15.5C21 15.2239 20.7761 15 20.5 15C20.2239 15 20 15.2239 20 15.5C20 17.9853 17.9853 20 15.5 20L5.5 20C3.01472 20 1 17.9853 1 15.5L1 5.5ZM10.5 1C10.2239 1 10 0.776142 10 0.5C10 0.223858 10.2239 0 10.5 0L15.5 0C18.5376 0 21 2.46243 21 5.5L21 10.5C21 10.7761 20.7761 11 20.5 11C20.2239 11 20 10.7761 20 10.5L20 5.5C20 4.43749 19.6318 3.46099 19.0159 2.69115L10.8535 10.8535C10.6583 11.0488 10.3417 11.0488 10.1465 10.8535C9.95119 10.6583 9.95119 10.3417 10.1465 10.1465L18.3088 1.98405C17.539 1.36824 16.5625 1 15.5 1L10.5 1Z" fill-rule="evenodd"  fill="#FFFFFF" >
</path>
</svg>
