<svg xmlns="http://www.w3.org/2000/svg" xmlns:xlink="http://www.w3.org/1999/xlink" width="20" height="20" viewBox="0 0 20 20" fill="none">
<path d="M3.74992 17.5001C4.67038 17.5001 5.41658 16.7539 5.41658 15.8334C5.41658 14.913 4.67038 14.1667 3.74992 14.1667C2.82944 14.1667 2.08325 14.913 2.08325 15.8334C2.08325 16.7539 2.82944 17.5001 3.74992 17.5001Z" stroke="rgba(0, 0, 0, 1)" stroke-width="1" stroke-linejoin="round"  >
</path>
<path d="M3.74992 5.83333C4.67038 5.83333 5.41658 5.08717 5.41658 4.16667C5.41658 3.24619 4.67038 2.5 3.74992 2.5C2.82944 2.5 2.08325 3.24619 2.08325 4.16667C2.08325 5.08717 2.82944 5.83333 3.74992 5.83333Z" stroke="rgba(0, 0, 0, 1)" stroke-width="1" stroke-linejoin="round"  >
</path>
<path d="M3.74992 11.6666C4.67038 11.6666 5.41658 10.9204 5.41658 9.99992C5.41658 9.07942 4.67038 8.33325 3.74992 8.33325C2.82944 8.33325 2.08325 9.07942 2.08325 9.99992C2.08325 10.9204 2.82944 11.6666 3.74992 11.6666Z" stroke="rgba(0, 0, 0, 1)" stroke-width="1" stroke-linejoin="round"  >
</path>
<path    stroke="rgba(0, 0, 0, 1)" stroke-width="1" stroke-linejoin="round" stroke-linecap="round"  d="M8.75 10L17.9167 10">
</path>
<path    stroke="rgba(0, 0, 0, 1)" stroke-width="1" stroke-linejoin="round" stroke-linecap="round"  d="M8.75 15.8333L17.9167 15.8333">
</path>
<path    stroke="rgba(0, 0, 0, 1)" stroke-width="1" stroke-linejoin="round" stroke-linecap="round"  d="M8.75 4.16675L17.9167 4.16675">
</path>
</svg>
