<svg xmlns="http://www.w3.org/2000/svg" xmlns:xlink="http://www.w3.org/1999/xlink" width="23" height="23" viewBox="0 0 23 23" fill="none">
<path   fill="rgba(102, 102, 102, 1)"  d="M23 11.5C23 17.8513 17.8513 23 11.5 23L6.72676 23L5.50945 23C2.47631 23 0 20.5412 0 17.508L0 16.5426L0 11.5C0 5.14873 5.14873 0 11.5 0C17.8513 0 23 5.14873 23 11.5Q23 11.5492 22.9904 11.5975Q22.9808 11.6458 22.9619 11.6913Q22.9431 11.7368 22.9157 11.7778Q22.8884 11.8187 22.8536 11.8536Q22.8187 11.8884 22.7778 11.9157Q22.7368 11.9431 22.6913 11.9619Q22.6458 11.9808 22.5975 11.9904Q22.5492 12 22.5 12Q22.4508 12 22.4025 11.9904Q22.3542 11.9808 22.3087 11.9619Q22.2632 11.9431 22.2222 11.9157Q22.1813 11.8884 22.1464 11.8536Q22.1116 11.8187 22.0843 11.7778Q22.0569 11.7368 22.0381 11.6913Q22.0192 11.6458 22.0096 11.5975Q22 11.5492 22 11.5C22 5.70101 17.299 1 11.5 1C5.70101 1 1 5.70101 1 11.5L1 16.5426L1 17.508C1 19.9889 3.0286 22 5.50945 22L6.72676 22L11.5 22C17.299 22 22 17.299 22 11.5Q22 11.4508 22.0096 11.4025Q22.0192 11.3542 22.0381 11.3087Q22.0569 11.2632 22.0843 11.2222Q22.1116 11.1813 22.1464 11.1464Q22.1813 11.1116 22.2222 11.0843Q22.2632 11.0569 22.3087 11.0381Q22.3542 11.0192 22.4025 11.0096Q22.4508 11 22.5 11Q22.5492 11 22.5975 11.0096Q22.6458 11.0192 22.6913 11.0381Q22.7368 11.0569 22.7778 11.0843Q22.8187 11.1116 22.8536 11.1464Q22.8884 11.1813 22.9157 11.2222Q22.9431 11.2632 22.9619 11.3087Q22.9808 11.3542 22.9904 11.4025Q23 11.4508 23 11.5Z">
</path>
</svg>
