<svg xmlns="http://www.w3.org/2000/svg" xmlns:xlink="http://www.w3.org/1999/xlink" width="21" height="21" viewBox="0 0 21 21" fill="none">
<path d="M7.08765 0.217223C7.07254 0.239216 7.05913 0.262478 7.04764 0.286817L6.191 2.00009L4.5 2.00009C2.01472 2.00009 0 4.01481 0 6.50009L0 16.5001C0 18.9854 2.01472 21.0001 4.5 21.0001L16.5 21.0001C18.9853 21.0001 21 18.9854 21 16.5001L21 6.50009C21 4.01481 18.9853 2.00009 16.5 2.00009L14.809 2.00009L13.9524 0.286814C13.9411 0.262883 13.9279 0.239993 13.9131 0.218327C13.8746 0.161684 13.8258 0.114997 13.7705 0.07954C13.6873 0.026091 13.5894 -0.00184241 13.4899 9.43303e-05L7.51008 9.43303e-05C7.48815 -0.000332613 7.4663 0.000692007 7.44466 0.00312154C7.36599 0.0117837 7.29281 0.0386996 7.22945 0.0795416C7.17458 0.114767 7.12607 0.161077 7.08765 0.217223ZM13.191 1.00009L7.809 1.00009L7.309 2.00009L13.691 2.00009L13.191 1.00009ZM16.5 3.00009L4.5 3.00009C2.567 3.00009 1 4.56709 1 6.50009L1 16.5001C1 18.4331 2.567 20.0001 4.5 20.0001L16.5 20.0001C18.433 20.0001 20 18.4331 20 16.5001L20 6.50009C20 4.56709 18.433 3.00009 16.5 3.00009ZM16 11.5001C16 14.5377 13.5376 17.0001 10.5 17.0001C7.46243 17.0001 5 14.5377 5 11.5001C5 8.46252 7.46243 6.00009 10.5 6.00009C13.5376 6.00009 16 8.46252 16 11.5001ZM15 11.5001C15 9.01481 12.9853 7.00009 10.5 7.00009C8.01472 7.00009 6 9.01481 6 11.5001C6 13.9854 8.01472 16.0001 10.5 16.0001C12.9853 16.0001 15 13.9854 15 11.5001Z" fill-rule="evenodd"  fill="#000000" >
</path>
</svg>
