<?xml version="1.0" standalone="no"?><!DOCTYPE svg PUBLIC "-//W3C//DTD SVG 1.1//EN" "http://www.w3.org/Graphics/SVG/1.1/DTD/svg11.dtd"><svg t="1708359462749" class="icon" viewBox="0 0 1024 1024" version="1.1" xmlns="http://www.w3.org/2000/svg" p-id="39181" xmlns:xlink="http://www.w3.org/1999/xlink" width="200" height="200"><path d="M914.285714 420.571429v109.714285a54.857143 54.857143 0 0 1-54.857143 54.857143H621.714286v237.714286a54.857143 54.857143 0 0 1-54.857143 54.857143h-109.714286A54.857143 54.857143 0 0 1 402.285714 822.857143V585.142857H164.571429A54.857143 54.857143 0 0 1 109.714286 530.285714v-109.714285A54.857143 54.857143 0 0 1 164.571429 365.714286H402.285714V128A54.857143 54.857143 0 0 1 457.142857 73.142857h109.714286A54.857143 54.857143 0 0 1 621.714286 128V365.714286h237.714285a54.857143 54.857143 0 0 1 54.857143 54.857143z" fill="#ffffff" p-id="39182"></path></svg>