<svg xmlns="http://www.w3.org/2000/svg" xmlns:xlink="http://www.w3.org/1999/xlink" width="30" height="30" viewBox="0 0 30 30" fill="none">
<ellipse cx="15.000001907348633" cy="15" rx="15.000001907348633" ry="15"   fill="#FFC300" >
</ellipse>
<path d="M6.38102 19.7376C5.93352 20.8145 6.74015 22.3393 8.26442 22.4604C9.789 22.5819 9.3415 22.3113 9.3415 22.3113L8.20561 19.3787C8.17605 19.051 6.82852 18.6606 6.38102 19.7376Z"   fill="#E4AE7C" >
</path>
<path d="M20.655 22.3113C20.655 22.3113 20.2058 22.5819 21.7321 22.4604C23.2583 22.3393 24.0663 20.8145 23.6171 19.7376C23.168 18.6606 21.8221 19.051 21.7909 19.3787L20.655 22.3113Z"   fill="#E4AE7C" >
</path>
<path d="M14.9823 7.74944C3.03567 7.24684 7.04398 26.8236 14.9823 26.6328C22.9221 26.8236 26.9304 7.24684 14.9823 7.74944Z"   fill="#E4AE7C" >
</path>
<path d="M11.7508 17.0752C11.3909 17.1329 11.0984 17.3963 11.0033 17.7481C10.9742 17.8559 10.9647 17.9682 10.9755 18.0794C10.9768 18.1605 11.0234 18.2339 11.0964 18.2694C11.1692 18.3049 11.2557 18.2964 11.3203 18.2475C11.385 18.1987 11.4165 18.1175 11.4022 18.0377C11.3981 17.9775 11.4046 17.9171 11.4212 17.8591C11.4366 17.8011 11.4624 17.7465 11.4975 17.6978C11.5755 17.5916 11.6919 17.52 11.8219 17.4983C11.9525 17.4764 12.0864 17.5083 12.193 17.5868C12.2619 17.6354 12.3171 17.7011 12.3525 17.7776C12.3874 17.8548 12.4029 17.9393 12.3977 18.0239C12.3876 18.1033 12.4224 18.1817 12.4879 18.2275C12.5537 18.2733 12.6393 18.2789 12.7102 18.2419C12.7813 18.205 12.8259 18.1317 12.8261 18.0516C12.8484 17.7327 12.7041 17.425 12.4445 17.2382C12.2443 17.0936 11.9945 17.0349 11.7508 17.0752Z"   fill="#39271F" >
</path>
<path d="M10.0111 19.6559C9.62783 19.9074 9.64338 20.3635 10.0492 20.674C10.4551 20.9844 11.0951 21.0348 11.4783 20.7833C11.8616 20.5318 11.8426 20.0774 11.4385 19.7652C11.0327 19.4548 10.3943 19.4044 10.0111 19.6559Z"   fill="#DA9077" >
</path>
<path d="M18.5321 20.7833C18.9171 21.0348 19.5537 20.9844 19.9595 20.674C20.3653 20.3635 20.3827 19.9074 19.9993 19.6559C19.6161 19.4044 18.9761 19.4548 18.5703 19.7652C18.1662 20.0774 18.1472 20.5318 18.5321 20.7833Z"   fill="#DA9077" >
</path>
<path d="M10.9961 15.7207C11.2083 15.6548 11.4298 15.6249 11.6518 15.6322C11.8574 15.6376 12.0607 15.6793 12.252 15.7553C12.2692 15.7611 12.2859 15.7681 12.3023 15.7762C12.7219 15.9791 12.6839 16.1109 12.9699 15.9149C13.4174 15.6808 12.9647 15.4293 12.6266 15.2541L12.5468 15.2212C12.2566 15.1143 11.9458 15.074 11.638 15.1033C11.3391 15.1277 11.0494 15.2183 10.7899 15.3686C10.6615 15.4518 10.1604 15.8577 10.3024 16.0069C10.3597 16.0224 10.8593 15.7675 10.9961 15.7207Z"   fill="#3F2716" >
</path>
<path d="M18.3136 15.6322C18.5348 15.6248 18.7561 15.6547 18.9675 15.7207C19.1148 15.7675 19.6144 16.0224 19.6716 16.0069C19.8137 15.8577 19.3126 15.4518 19.1841 15.3686C18.9247 15.2186 18.6351 15.1278 18.3361 15.1033C18.0283 15.074 17.7175 15.1143 17.4272 15.2212L17.3475 15.2541C17.0007 15.4293 16.5481 15.6808 16.9955 15.9149C17.2817 16.1109 17.2435 15.9791 17.6615 15.7762C17.6782 15.768 17.6955 15.7611 17.7134 15.7553C17.9046 15.6793 18.108 15.6376 18.3136 15.6322Z"   fill="#3F2716" >
</path>
<path d="M15.1171 22.9876C16.1699 22.9876 17.3024 22.5749 17.3024 21.4267C16.5706 21.4128 15.8419 21.4128 15.1119 21.4128C14.3845 21.4128 13.6549 21.4174 12.9231 21.4267C12.9231 22.5749 14.0521 22.9842 15.1171 22.9876Z"   fill="#FFFFFF" >
</path>
<path d="M14.5794 23.5514C14.5554 23.5922 14.5685 23.6447 14.6088 23.6694C14.7637 23.7553 14.9382 23.7995 15.1153 23.7977C15.2911 23.8007 15.4644 23.7557 15.6165 23.6676C15.6363 23.6561 15.6505 23.637 15.6561 23.6149C15.6617 23.5927 15.658 23.5692 15.646 23.5497C15.6208 23.5099 15.5684 23.4976 15.5281 23.5219C15.4019 23.5918 15.2594 23.6271 15.1153 23.6243C14.9687 23.6267 14.824 23.5909 14.6956 23.5202C14.6761 23.5089 14.6528 23.5058 14.631 23.5117C14.6092 23.5175 14.5906 23.5319 14.5794 23.5514Z"   fill="#D67F54" >
</path>
<path d="M15.757 17.6855C15.752 17.6546 15.7308 17.6286 15.7016 17.6174C15.6723 17.6062 15.6392 17.6113 15.6148 17.6313C15.5904 17.651 15.5785 17.6824 15.5835 17.7133C15.5835 17.7133 15.835 19.2568 15.835 19.5049C15.835 19.576 15.7206 19.6177 15.5627 19.6452C15.3493 19.6724 15.1342 19.6833 14.9192 19.6784C14.8714 19.6784 14.8325 19.7172 14.8325 19.7649C14.8325 19.8129 14.8714 19.8517 14.9192 19.8517C15.1453 19.8566 15.3715 19.844 15.5956 19.8136C15.8367 19.7737 16.0102 19.6784 16.0102 19.5049C16.0102 19.2465 15.757 17.6855 15.757 17.6855Z"   fill="#D67F54" >
</path>
<path d="M23.1282 20.5891C23.1467 20.3684 23.0905 20.1479 22.9685 19.963C22.8989 19.8738 22.7922 19.8214 22.6789 19.8208C22.5649 19.822 22.4532 19.8543 22.3562 19.9145C22.0623 20.1001 21.8314 20.3703 21.6937 20.6898C21.614 20.8643 21.553 21.0468 21.5117 21.2342C21.5065 21.2672 21.5065 21.3005 21.5117 21.3332C21.5132 21.3626 21.5286 21.3897 21.5533 21.406C21.5778 21.4224 21.6086 21.4263 21.6366 21.4164C21.6704 21.4072 21.7007 21.3877 21.7233 21.3609C21.8178 21.2588 21.9519 21.2025 22.0909 21.2066C22.1274 21.2105 22.1625 21.2229 22.1932 21.243C22.2176 21.2603 22.2354 21.2855 22.2435 21.3141C22.2596 21.4298 22.2249 21.5469 22.1482 21.6349C22.1351 21.6536 22.1299 21.677 22.1343 21.6996C22.1385 21.722 22.1516 21.7419 22.1708 21.7545C22.2102 21.78 22.2629 21.7703 22.2905 21.7321C22.3976 21.6022 22.441 21.4308 22.4083 21.2656C22.3897 21.2003 22.3494 21.1433 22.2939 21.1043C22.2392 21.0655 22.175 21.0422 22.1083 21.0365C21.9647 21.0272 21.8223 21.0683 21.7059 21.1528C21.7463 21.0168 21.7955 20.8834 21.8533 20.7539C21.9758 20.4687 22.1812 20.2269 22.4431 20.0602C22.5134 20.0162 22.5943 19.9916 22.6771 19.9891C22.7399 19.9891 22.799 20.0185 22.8367 20.0688C22.9322 20.2246 22.9736 20.4075 22.9546 20.5891C22.9546 20.637 22.9935 20.6758 23.0415 20.6758C23.0892 20.6758 23.1282 20.637 23.1282 20.5891Z"   fill="#D67F54" >
</path>
<path d="M8.45546 21.3331C8.46067 21.3004 8.46067 21.2671 8.45546 21.2344C8.41348 21.0468 8.35196 20.8644 8.27174 20.6897C8.13455 20.3706 7.90428 20.1004 7.61088 19.9144C7.51389 19.8543 7.40241 19.822 7.28834 19.8208C7.17296 19.8202 7.06393 19.8733 6.99346 19.9647C6.87239 20.1493 6.81673 20.3692 6.83561 20.5891C6.83659 20.6363 6.87516 20.6741 6.92235 20.6741C6.94513 20.6746 6.96726 20.6658 6.98354 20.6498C6.99981 20.6339 7.00909 20.612 7.00909 20.5891C6.99184 20.409 7.03382 20.228 7.1287 20.074C7.16645 20.0238 7.22552 19.9943 7.28834 19.9943C7.37198 19.9947 7.454 20.0174 7.52593 20.0601C7.78712 20.2277 7.99232 20.4693 8.11551 20.7539C8.17296 20.8836 8.22161 21.0167 8.26132 21.1528C8.14546 21.0682 8.00371 21.0271 7.86067 21.0367C7.79379 21.0421 7.72967 21.0654 7.67499 21.1042C7.6195 21.1436 7.57865 21.2003 7.5588 21.2655C7.52788 21.4312 7.57166 21.6019 7.67857 21.7321C7.69403 21.7617 7.72511 21.7799 7.75847 21.7787C7.792 21.7775 7.82178 21.7572 7.83496 21.7264C7.8483 21.6957 7.84277 21.6601 7.8208 21.635C7.74464 21.5465 7.70933 21.43 7.72365 21.3141C7.73309 21.2855 7.75131 21.2606 7.77572 21.243C7.80632 21.2227 7.84147 21.2101 7.87792 21.2066C8.01657 21.2027 8.15001 21.2589 8.24391 21.3609C8.26702 21.3881 8.29794 21.4075 8.33244 21.4165C8.3601 21.4265 8.39086 21.4226 8.4151 21.4061C8.43952 21.3897 8.45449 21.3625 8.45546 21.3331Z"   fill="#D67F54" >
</path>
<path d="M19.0367 18.0516C19.0638 17.6391 18.8147 17.2585 18.4259 17.1181C18.037 16.9778 17.6023 17.1117 17.3596 17.4463C17.2941 17.5376 17.2453 17.6397 17.2157 17.7481C17.1862 17.8559 17.1775 17.9683 17.1897 18.0794C17.2095 18.1895 17.3108 18.2659 17.4221 18.255C17.5335 18.2442 17.6181 18.1497 17.6162 18.0378C17.6097 17.9779 17.6144 17.9173 17.6301 17.8591C17.6737 17.7015 17.7916 17.5752 17.9458 17.5209C18.1 17.4666 18.271 17.4912 18.4038 17.5868C18.5425 17.6875 18.6195 17.8528 18.6067 18.0238C18.5989 18.1426 18.689 18.2451 18.8079 18.2528C18.9266 18.2605 19.0291 18.1704 19.0367 18.0516Z"   fill="#39271F" >
</path>
<path d="M24.9631 10.1063C25.327 7.89848 22.9477 5.16524 20.1069 6.24258C18.6415 6.79714 18.2457 8.53541 19.0004 10.1167C19.3873 10.9268 19.6734 11.6293 21.1095 12.2487C22.9878 13.0569 24.6941 11.6688 24.9631 10.1063Z"   fill="#2E1E11" >
</path>
<path d="M10.9996 10.1167C11.7522 8.53541 11.359 6.79714 9.89322 6.24258C7.05212 5.16524 4.67243 7.89848 5.03696 10.1063C5.30591 11.6688 7.01261 13.0569 8.89074 12.2487C10.3266 11.6293 10.6127 10.9268 10.9996 10.1167Z"   fill="#2E1E11" >
</path>
<path d="M8.40681 16.7532C8.84196 14.5158 14.1299 11.8044 14.9848 10.5841C15.8521 11.7977 21.1277 14.5158 21.5644 16.7532C21.9995 18.9905 21.755 19.5117 22.0687 19.8323C22.3101 20.0815 25.4285 7.36617 14.9848 7.45776C3.7001 7.45776 8.21922 20.9274 8.21922 20.9274C8.5329 20.6068 7.97166 18.9905 8.40681 16.7532Z"   fill="#4E3832" >
</path>
<path d="M7.9609 17.9025C6.98994 22.5688 9.704 27.689 10.1588 28.6385C10.4602 29.2627 10.7791 29.3989 10.7118 29.1227C10.7118 29.1227 9.31938 24.1727 10.1067 19.1755C10.9945 13.5749 15.3092 12.4419 14.9629 10.3442C12.6733 11.0819 8.93258 13.2363 7.9609 17.9025Z"   fill="#F1D3A4" >
</path>
<path d="M19.859 19.1755C20.6428 24.1727 19.2553 29.1227 19.2553 29.1227C19.1859 29.3989 19.5069 29.2627 19.807 28.6385C20.2611 27.689 22.9775 22.5688 22.0043 17.9025C21.0311 13.2363 17.2901 11.0819 15.0024 10.3442C14.6561 12.4419 18.9712 13.5749 19.859 19.1755Z"   fill="#F1D3A4" >
</path>
<path d="M10.1181 27.2793C10.1398 27.2871 10.1636 27.2855 10.1843 27.2746C10.1843 27.2746 10.2436 27.2026 10.2245 27.1604C8.92924 24.4843 8.59354 21.4421 9.27372 18.5485C9.91569 15.863 11.461 13.4214 13.8889 11.801C13.9286 11.7745 13.9131 11.6822 13.9131 11.6822C13.9007 11.6618 13.8594 11.6446 13.8594 11.6446C13.8372 11.6399 13.8145 11.6446 13.7954 11.6571C11.3272 13.3041 9.76643 15.7832 9.11259 18.5079C8.42259 21.4405 8.75984 24.5218 10.068 27.2355L10.1181 27.2793Z"   fill="#DDBA8A" >
</path>
<path d="M19.781 27.2745C19.781 27.2745 19.825 27.287 19.8462 27.2792L19.8954 27.2353C21.2023 24.5208 21.5382 21.4401 20.8456 18.5081C20.1987 15.7825 18.6376 13.3027 16.163 11.6567C16.1371 11.6364 16.102 11.6317 16.0725 11.6458C16.0424 11.6598 16.0228 11.6896 16.0217 11.7224C16.0217 11.7224 16.0383 11.785 16.0673 11.8007C18.5041 13.4216 20.0429 15.8623 20.6842 18.5472C21.3653 21.4417 21.032 24.4817 19.7406 27.1602C19.7209 27.2025 19.7385 27.2541 19.781 27.2745Z"   fill="#DDBA8A" >
</path>
</svg>
