<svg xmlns="http://www.w3.org/2000/svg" xmlns:xlink="http://www.w3.org/1999/xlink" width="205" height="236.380859375" viewBox="0 0 205 236.380859375" fill="none">
<rect  x="0" y="21.91748046875" width="204.99996948242188" height="204.99996948242188" rx="29.34"    fill="#FFC300" >
</rect>
<path d="M187.43 235.501C187.43 155.629 124.074 198.716 124.074 132.174L80.6648 132.174C80.6648 198.747 17.6648 155.629 17.6648 235.501L102.497 235.501L187.43 235.501Z"   fill="#E4AE7C" >
</path>
<path d="M43.5437 94.1576C40.4765 101.539 46.0052 111.99 56.4527 112.82C66.9024 113.653 63.8352 111.798 63.8352 111.798L56.0497 91.6979C55.8471 89.4516 46.6109 86.776 43.5437 94.1576Z"   fill="#E4AE7C" >
</path>
<path d="M141.378 111.798C141.378 111.798 138.3 113.653 148.761 112.82C159.222 111.99 164.76 101.539 161.681 94.1576C158.603 86.776 149.378 89.4516 149.164 91.6979L141.378 111.798Z"   fill="#E4AE7C" >
</path>
<path d="M80.6329 130.308C80.6329 130.308 80.738 133.803 80.6329 138.76C88.7654 157.755 116.793 157.043 124.426 137.893C124.308 133.398 124.426 130.308 124.426 130.308L80.6329 130.308Z"   fill="#D67F54" >
</path>
<path d="M102.498 11.991C20.6152 8.54616 48.0886 142.727 102.498 141.419C156.919 142.727 184.392 8.54616 102.498 11.991Z"   fill="#E4AE7C" >
</path>
<path d="M80.348 75.9102C77.8811 76.306 75.8762 78.1111 75.2245 80.5225C75.0247 81.2618 74.9598 82.0313 75.0336 82.7933C75.0425 83.349 75.362 83.8525 75.8622 84.0958C76.3612 84.3392 76.9544 84.2811 77.3974 83.946C77.8403 83.6109 78.0567 83.0543 77.9587 82.5079C77.9307 82.0953 77.9753 81.6811 78.0886 81.2837C78.1942 80.8863 78.3711 80.5116 78.6117 80.1782C79.1463 79.4499 79.9445 78.959 80.8355 78.8108C81.7303 78.6601 82.6481 78.879 83.3787 79.417C83.851 79.7504 84.229 80.2009 84.4722 80.7246C84.7115 81.2542 84.8171 81.8335 84.7815 82.4127C84.7128 82.9575 84.9508 83.4947 85.4001 83.8087C85.8507 84.1228 86.4375 84.1607 86.9238 83.9072C87.4113 83.6546 87.7168 83.152 87.7181 82.603C87.8708 80.4173 86.8818 78.3082 85.1023 77.0275C83.7301 76.0365 82.018 75.6341 80.348 75.9102Z"   fill="#39271F" >
</path>
<path d="M68.4244 93.5987C65.7976 95.3226 65.9043 98.4488 68.6861 100.577C71.4679 102.705 75.8545 103.05 78.4812 101.326C81.1079 99.6021 80.9778 96.4877 78.2084 94.348C75.4266 92.2201 71.0511 91.8747 68.4244 93.5987Z"   fill="#DA9077" >
</path>
<path d="M126.828 101.326C129.467 103.05 133.83 102.705 136.611 100.577C139.392 98.4488 139.512 95.3226 136.884 93.5987C134.258 91.8747 129.871 92.2201 127.09 94.348C124.319 96.4877 124.189 99.6021 126.828 101.326Z"   fill="#DA9077" >
</path>
<path d="M75.1756 66.6263C76.6303 66.1749 78.1481 65.97 79.6699 66.0203C81.0792 66.0567 82.4727 66.3428 83.7833 66.864C83.9017 66.9036 84.0162 66.9514 84.1287 67.0067C87.0045 68.3974 86.7439 69.3008 88.7039 67.9579C91.7711 66.3529 88.6684 64.629 86.3511 63.4288L85.8044 63.2031C83.8148 62.47 81.6851 62.194 79.5752 62.3946C77.5264 62.5618 75.5408 63.1829 73.7624 64.2134C72.8821 64.7836 69.4477 67.5656 70.4208 68.5879C70.8136 68.6948 74.2381 66.9476 75.1756 66.6263Z"   fill="#3F2716" >
</path>
<path d="M125.33 66.0203C126.847 65.9693 128.363 66.1743 129.812 66.6263C130.822 66.9476 134.246 68.6948 134.638 68.5879C135.612 67.5656 132.178 64.7836 131.297 64.2134C129.519 63.1848 127.534 62.563 125.485 62.3946C123.374 62.194 121.244 62.47 119.255 63.2031L118.709 63.4288C116.331 64.629 113.229 66.3529 116.296 67.9579C118.257 69.3008 117.996 68.3974 120.86 67.0067C120.975 66.9507 121.094 66.9036 121.217 66.864C122.527 66.3428 123.921 66.0567 125.33 66.0203Z"   fill="#3F2716" >
</path>
<path d="M103.422 116.435C110.637 116.435 118.399 113.606 118.399 105.737C113.384 105.642 108.389 105.642 103.386 105.642C98.3999 105.642 93.3992 105.673 88.3835 105.737C88.3835 113.606 96.1217 116.412 103.422 116.435Z"   fill="#FFFFFF" >
</path>
<path d="M99.7362 120.299C99.5717 120.578 99.6614 120.938 99.9382 121.107C101 121.696 102.195 121.999 103.409 121.986C104.614 122.007 105.802 121.699 106.845 121.095C106.98 121.016 107.078 120.885 107.116 120.733C107.154 120.581 107.129 120.42 107.047 120.287C106.874 120.014 106.515 119.93 106.239 120.096C105.374 120.575 104.397 120.817 103.409 120.798C102.405 120.815 101.413 120.569 100.533 120.085C100.399 120.007 100.24 119.986 100.09 120.026C99.9404 120.066 99.8133 120.164 99.7362 120.299Z"   fill="#D67F54" >
</path>
<path d="M107.808 80.0953C107.774 79.8833 107.629 79.7051 107.429 79.6283C107.228 79.5515 107.001 79.5868 106.834 79.7236C106.667 79.8587 106.585 80.0738 106.619 80.2858C106.619 80.2858 108.343 90.8652 108.343 92.5657C108.343 93.0527 107.559 93.3384 106.476 93.5273C105.014 93.7132 103.54 93.7885 102.066 93.7547C101.738 93.7547 101.472 94.0204 101.472 94.3476C101.472 94.6764 101.738 94.9421 102.066 94.9421C103.616 94.9759 105.166 94.8899 106.702 94.681C108.354 94.4075 109.543 93.7547 109.543 92.5657C109.543 90.7945 107.808 80.0953 107.808 80.0953Z"   fill="#D67F54" >
</path>
<path d="M158.33 99.9943C158.457 98.4816 158.072 96.9702 157.236 95.7032C156.759 95.0917 156.027 94.7325 155.251 94.7285C154.469 94.7365 153.704 94.9582 153.039 95.3707C151.025 96.6431 149.442 98.495 148.498 100.685C147.952 101.881 147.533 103.132 147.251 104.416C147.215 104.642 147.215 104.87 147.251 105.095C147.261 105.296 147.367 105.482 147.536 105.594C147.704 105.706 147.915 105.733 148.107 105.665C148.338 105.602 148.546 105.468 148.701 105.284C149.349 104.585 150.268 104.199 151.221 104.227C151.471 104.253 151.711 104.339 151.922 104.476C152.089 104.595 152.211 104.767 152.267 104.964C152.377 105.757 152.139 106.559 151.613 107.163C151.523 107.291 151.488 107.451 151.518 107.606C151.547 107.76 151.637 107.896 151.768 107.983C152.039 108.157 152.399 108.091 152.588 107.829C153.323 106.938 153.62 105.763 153.396 104.631C153.268 104.184 152.992 103.793 152.612 103.526C152.237 103.26 151.797 103.1 151.34 103.061C150.356 102.997 149.38 103.279 148.582 103.858C148.859 102.926 149.196 102.012 149.592 101.124C150.432 99.1692 151.839 97.5123 153.635 96.3694C154.116 96.0677 154.671 95.8994 155.238 95.8821C155.669 95.8821 156.074 96.0837 156.332 96.4282C156.987 97.4963 157.271 98.75 157.14 99.9943C157.14 100.323 157.407 100.588 157.736 100.588C158.063 100.588 158.33 100.323 158.33 99.9943Z"   fill="#D67F54" >
</path>
<path d="M57.761 105.094C57.7967 104.87 57.7967 104.642 57.761 104.418C57.4732 103.132 57.0516 101.881 56.5017 100.684C55.5615 98.4968 53.9832 96.6448 51.9721 95.37C51.3074 94.958 50.5433 94.7366 49.7614 94.7285C48.9706 94.7245 48.2233 95.0882 47.7403 95.7149C46.9105 96.9803 46.529 98.4874 46.6584 99.9944C46.6651 100.318 46.9294 100.577 47.2529 100.577C47.409 100.581 47.5607 100.52 47.6723 100.41C47.7838 100.302 47.8474 100.151 47.8474 99.9944C47.7292 98.7598 48.0169 97.5198 48.6672 96.4637C48.926 96.1201 49.3309 95.9175 49.7614 95.9175C50.3347 95.9202 50.8969 96.0759 51.3899 96.3684C53.1801 97.5171 54.5866 99.1731 55.431 101.124C55.8247 102.013 56.1582 102.925 56.4304 103.858C55.6362 103.278 54.6647 102.996 53.6843 103.062C53.2258 103.1 52.7864 103.259 52.4116 103.525C52.0312 103.795 51.7513 104.184 51.6152 104.631C51.4033 105.766 51.7033 106.936 52.4361 107.829C52.5421 108.031 52.7551 108.156 52.9838 108.148C53.2136 108.14 53.4177 108.001 53.508 107.79C53.5995 107.579 53.5616 107.335 53.411 107.163C52.889 106.557 52.6469 105.758 52.7451 104.964C52.8098 104.768 52.9347 104.597 53.102 104.477C53.3117 104.337 53.5526 104.251 53.8025 104.227C54.7528 104.2 55.6674 104.585 56.311 105.284C56.4694 105.471 56.6813 105.604 56.9178 105.666C57.1074 105.734 57.3182 105.707 57.4844 105.594C57.6517 105.482 57.7543 105.295 57.761 105.094Z"   fill="#D67F54" >
</path>
<path d="M130.287 82.6032C130.472 79.7762 128.765 77.1675 126.1 76.205C123.435 75.2433 120.455 76.1608 118.791 78.4546C118.343 79.0802 118.009 79.7802 117.805 80.5228C117.603 81.262 117.543 82.0324 117.627 82.7937C117.763 83.5485 118.457 84.0719 119.22 83.9975C119.984 83.9231 120.563 83.2754 120.551 82.5083C120.506 82.0978 120.538 81.6824 120.646 81.2841C120.945 80.2038 121.753 79.3378 122.809 78.9657C123.867 78.5937 125.039 78.7621 125.949 79.4172C126.899 80.1073 127.427 81.2408 127.339 82.4126C127.286 83.2271 127.904 83.9296 128.718 83.9819C129.532 84.0351 130.235 83.4177 130.287 82.6032Z"   fill="#39271F" >
</path>
<path d="M170.907 28.1453C173.401 13.0124 157.093 -5.72153 137.622 1.66267C127.578 5.46368 124.865 17.378 130.038 28.2164C132.689 33.769 134.651 38.5837 144.494 42.8292C157.368 48.3685 169.063 38.8548 170.907 28.1453Z"   fill="#2E1E11" >
</path>
<path d="M75.1996 28.2164C80.3584 17.378 77.6632 5.46368 67.6165 1.66267C48.1433 -5.72153 31.8326 13.0124 34.3312 28.1453C36.1745 38.8548 47.8724 48.3685 60.7454 42.8292C70.5868 38.5837 72.5481 33.769 75.1996 28.2164Z"   fill="#2E1E11" >
</path>
<path d="M57.428 73.7028C60.4105 58.368 96.6546 39.7836 102.514 31.4192C108.458 39.7374 144.618 58.368 147.611 73.7028C150.594 89.0375 148.918 92.6104 151.068 94.8076C152.723 96.5156 174.096 9.36342 102.514 9.99121C25.1677 9.99121 56.1422 102.313 56.1422 102.313C58.2922 100.116 54.4454 89.0375 57.428 73.7028Z"   fill="#4E3832" >
</path>
<path d="M54.3725 81.5803C47.7175 113.563 66.3199 148.658 69.4368 155.166C71.5032 159.444 73.6885 160.377 73.2277 158.484C73.2277 158.484 63.6837 124.557 69.08 90.3052C75.1652 51.9179 104.739 44.1523 102.365 29.7749C86.6716 34.831 61.0325 49.5973 54.3725 81.5803Z"   fill="#F1D3A4" >
</path>
<path d="M135.923 90.3052C141.295 124.557 131.785 158.484 131.785 158.484C131.309 160.377 133.509 159.444 135.566 155.166C138.678 148.658 157.297 113.563 150.626 81.5803C143.956 49.5973 118.315 34.831 102.635 29.7749C100.261 44.1523 129.837 51.9179 135.923 90.3052Z"   fill="#F1D3A4" >
</path>
<path d="M79.0889 147.973C78.4313 151.104 77.4214 154.149 76.08 157.055C90.6403 166.279 113.822 165.673 128.682 157.173C127.351 154.334 126.347 151.356 125.673 148.293C113.464 156.365 90.7613 157.162 79.0889 147.973Z"   fill="#35253D" >
</path>
<path d="M187.43 235.501C187.43 203.584 177.307 191.303 165.162 183.812C130.918 225.323 74.9826 225.061 40.9935 183.041C28.3559 190.469 17.5698 202.467 17.5698 235.501L187.43 235.501Z"   fill="#35253D" >
</path>
<path d="M42.5096 235.512L42.7236 211.097C42.7236 211.097 42.6415 210.633 42.4781 210.466C42.3146 210.298 42.0902 210.204 41.8559 210.204C41.3681 210.204 40.9709 210.597 40.9644 211.084L40.7504 235.501C40.7439 235.734 40.8327 235.959 40.9966 236.127C41.1604 236.292 41.3849 236.383 41.6182 236.381C41.8523 236.386 42.0793 236.297 42.2471 236.135C42.4151 235.972 42.5098 235.747 42.5096 235.512Z"   fill="#23142B" >
</path>
<path d="M162.264 235.513C162.317 235.962 162.697 236.301 163.15 236.301C163.603 236.301 163.983 235.962 164.036 235.513L164.25 211.097C164.25 210.609 163.858 210.209 163.37 210.204C162.884 210.204 162.49 210.598 162.49 211.084L162.264 235.513Z"   fill="#23142B" >
</path>
<path d="M69.1585 145.85C69.3072 145.903 69.47 145.892 69.6116 145.817C69.6116 145.817 70.0187 145.324 69.8877 145.035C61.0096 126.692 58.7087 105.841 63.3708 86.008C67.7709 67.601 78.3623 50.8664 95.0034 39.76C95.276 39.5778 95.1698 38.9453 95.1698 38.9453C95.0848 38.8059 94.8016 38.688 94.8016 38.688C94.6494 38.6558 94.4936 38.688 94.3627 38.7737C77.4454 50.0624 66.7478 67.0543 62.2663 85.7293C57.537 105.83 59.8486 126.949 68.8151 145.549L69.1585 145.85Z"   fill="#DDBA8A" >
</path>
<path d="M135.388 145.817C135.388 145.817 135.69 145.903 135.835 145.849L136.172 145.549C145.13 126.943 147.433 105.828 142.686 85.7311C138.251 67.0501 127.552 50.0528 110.591 38.7713C110.413 38.6319 110.172 38.5997 109.97 38.6962C109.764 38.7927 109.629 38.9965 109.622 39.2217C109.622 39.2217 109.736 39.6506 109.934 39.7579C126.637 50.8678 137.184 67.597 141.579 85.9992C146.248 105.838 143.963 126.675 135.112 145.034C134.977 145.324 135.098 145.677 135.388 145.817Z"   fill="#DDBA8A" >
</path>
</svg>
