<svg xmlns="http://www.w3.org/2000/svg" xmlns:xlink="http://www.w3.org/1999/xlink" width="21" height="21" viewBox="0 0 21 21" fill="none">
<path d="M5.5 0L15.5 0C18.5376 0 21 2.46243 21 5.5L21 15.5C21 18.5376 18.5376 21 15.5 21L5.5 21C2.46243 21 0 18.5376 0 15.5L0 5.5C0 2.46243 2.46243 0 5.5 0ZM5.5 1C3.01472 1 1 3.01472 1 5.5L1 15.5C1 17.9853 3.01472 20 5.5 20L15.5 20C17.9853 20 20 17.9853 20 15.5L20 5.5C20 3.01472 17.9853 1 15.5 1L5.5 1ZM11.5 9C11.5 7.61929 10.3807 6.5 9 6.5C7.61929 6.5 6.5 7.61929 6.5 9L6.5 11.978C6.50032 11.9853 6.50049 11.9928 6.50049 12.0002C6.50049 13.3807 7.61956 14.5 9 14.5C9.27614 14.5 9.5 14.7239 9.5 15C9.5 15.2761 9.27614 15.5 9 15.5C7.07521 15.5 5.51336 13.9458 5.50057 12.024C5.50019 12.0161 5.5 12.0081 5.5 12L5.5 9C5.5 7.067 7.067 5.5 9 5.5C10.933 5.5 12.5 7.067 12.5 9L12.5 15C12.5 15.2761 12.2761 15.5 12 15.5C11.7239 15.5 11.5 15.2761 11.5 15L11.5 9ZM15 5.5C14.7239 5.5 14.5 5.72386 14.5 6L14.5 7C14.5 7.27614 14.7239 7.5 15 7.5C15.2761 7.5 15.5 7.27614 15.5 7L15.5 6C15.5 5.72386 15.2761 5.5 15 5.5ZM15 9.5C14.7239 9.5 14.5 9.72386 14.5 10L14.5 15C14.5 15.2761 14.7239 15.5 15 15.5C15.2761 15.5 15.5 15.2761 15.5 15L15.5 10C15.5 9.72386 15.2761 9.5 15 9.5Z" fill-rule="evenodd"  fill="#000000" >
</path>
</svg>
