<svg xmlns="http://www.w3.org/2000/svg" xmlns:xlink="http://www.w3.org/1999/xlink" width="26.6748046875" height="25.41741943359375" viewBox="0 0 26.6748046875 25.41741943359375" fill="none">
<path   fill="rgba(102, 102, 102, 1)"  d="M12.8067 1.63367L9.87551 7.64578C9.64439 8.11983 9.19383 8.44886 8.67195 8.5249L1.97263 9.50108C1.48603 9.57198 1.29081 10.1692 1.6416 10.5138L6.50678 15.2931C6.88101 15.6608 7.05051 16.1889 6.96009 16.7057L5.80971 23.2796C5.72421 23.7682 6.23916 24.1406 6.67639 23.9064L12.582 20.7429C13.0524 20.4909 13.6176 20.4909 14.088 20.7428L19.9986 23.9084C20.4355 24.1424 20.9501 23.7707 20.8653 23.2823L19.7227 16.7037C19.6331 16.1881 19.8022 15.6612 20.1753 15.2941L25.0346 10.5123C25.3848 10.1677 25.1898 9.57119 24.7037 9.49996L18.0477 8.52469C17.5293 8.44872 17.0811 8.12291 16.8491 7.65308L13.8746 1.63095C13.6557 1.18787 13.0233 1.18948 12.8067 1.63367L11.9079 1.19542C12.4886 0.00436306 14.1844 2.87294e-05 14.7712 1.1881L17.7457 7.21023C17.8322 7.38544 17.9994 7.50693 18.1927 7.53526L24.8486 8.51052C26.1521 8.70151 26.675 10.301 25.736 11.2251L20.8767 16.0069C20.7376 16.1438 20.6745 16.3403 20.7079 16.5326L21.8506 23.1112C22.078 24.4206 20.6981 25.4174 19.5265 24.7899L13.6159 21.6243C13.4404 21.5304 13.2296 21.5304 13.0542 21.6244L7.14858 24.7879C5.9762 25.4159 4.59542 24.4173 4.82468 23.1073L5.97506 16.5333C6.00878 16.3406 5.94557 16.1436 5.806 16.0065L0.940817 11.2272C0.000160575 10.3032 0.523624 8.70165 1.82844 8.51153L8.52777 7.53535C8.72241 7.50699 8.89046 7.38434 8.97666 7.20754L11.9079 1.19543L12.8067 1.63367Z">
</path>
</svg>
