<svg xmlns="http://www.w3.org/2000/svg" xmlns:xlink="http://www.w3.org/1999/xlink" width="14" height="16" viewBox="0 0 14 16" fill="none">
<path d="M4.96407 0.000626324C2.21919 0.019942 0 2.25099 0 5.00034L0 11.0002C0 13.7615 2.23858 16 5 16C5.55228 16 6 15.5523 6 15C6 14.4477 5.55228 14.0001 5 14.0001C3.34315 14.0001 2 12.657 2 11.0002L2 5.00034C2 3.34355 3.34315 2.00044 5 2.00044C5.00923 2.00044 5.01844 2.00031 5.02761 2.00007C6.67166 2.01499 7.9998 3.35233 7.9998 4.99984C7.9998 5.00659 7.99987 5.01332 8 5.02003L8 15C8 15.5523 8.44771 16 9 16C9.55229 16 10 15.5523 10 15L10 5.00034C10 4.99283 9.99992 4.98534 9.99975 4.97787C9.98791 2.22664 7.7539 0 4.9998 0C4.98784 0 4.97593 0.000209936 4.96407 0.000626324ZM13 16C13.5523 16 14 15.5523 14 15L14 5.00034C14 4.44807 13.5523 4.00037 13 4.00037C12.4477 4.00037 12 4.44807 12 5.00034L12 15C12 15.5523 12.4477 16 13 16Z" fill-rule="evenodd"  fill="#000000" >
</path>
</svg>
