<svg xmlns="http://www.w3.org/2000/svg" xmlns:xlink="http://www.w3.org/1999/xlink" width="23" height="23" viewBox="0 0 23 23" fill="none">
<path   fill-rule="evenodd"  fill="#FFFFFF"  d="M21 11.5C21 6.2533 16.7467 2 11.5 2C8.87663 2 6.63744 2.9275 4.78245 4.78249C4.69197 4.87297 4.56697 4.92893 4.4289 4.92893C4.15276 4.92893 3.9289 4.70507 3.9289 4.42893C3.9289 4.29086 3.98486 4.16586 4.07535 4.07538C6.1256 2.02513 8.60049 1 11.5 1C15.6973 1 19.3193 3.46278 21 7.02213L21 3.5C21 3.22386 21.2239 3 21.5 3C21.7761 3 22 3.22386 22 3.5L22 11.5C22 11.7071 21.8741 11.8848 21.6946 11.9607C21.6348 11.986 21.569 12 21.5 12L21.5 12C21.4201 12 21.3445 11.9813 21.2775 11.9479C21.113 11.8661 21 11.6962 21 11.5ZM1 11.5C1 11.2239 1.22386 11 1.5 11C1.77614 11 2 11.2239 2 11.5C2 16.7467 6.2533 21 11.5 21C14.1233 21 16.3625 20.0725 18.2175 18.2175C18.308 18.127 18.433 18.0711 18.5711 18.0711C18.8472 18.0711 19.0711 18.2949 19.0711 18.5711C19.0711 18.7091 19.0151 18.8341 18.9246 18.9246C16.8743 20.9749 14.3995 22 11.5 22C7.30273 22 3.68067 19.5372 2 15.9779L2 19.5C2 19.7761 1.77614 20 1.5 20C1.22386 20 1 19.7761 1 19.5L1 11.5Z">
</path>
<path   fill-rule="evenodd"  fill="#FFFFFF"  d="M21 11.5C21 6.2533 16.7467 2 11.5 2C8.87663 2 6.63744 2.9275 4.78245 4.78249C4.69197 4.87297 4.56697 4.92893 4.4289 4.92893C4.15276 4.92893 3.9289 4.70507 3.9289 4.42893C3.9289 4.29086 3.98486 4.16586 4.07535 4.07538C6.1256 2.02513 8.60049 1 11.5 1C15.6973 1 19.3193 3.46278 21 7.02213L21 3.5C21 3.22386 21.2239 3 21.5 3C21.7761 3 22 3.22386 22 3.5L22 11.5C22 11.7071 21.8741 11.8848 21.6946 11.9607C21.6348 11.986 21.569 12 21.5 12L21.5 12C21.4201 12 21.3445 11.9813 21.2775 11.9479C21.113 11.8661 21 11.6962 21 11.5ZM1 11.5C1 11.2239 1.22386 11 1.5 11C1.77614 11 2 11.2239 2 11.5C2 16.7467 6.2533 21 11.5 21C14.1233 21 16.3625 20.0725 18.2175 18.2175C18.308 18.127 18.433 18.0711 18.5711 18.0711C18.8472 18.0711 19.0711 18.2949 19.0711 18.5711C19.0711 18.7091 19.0151 18.8341 18.9246 18.9246C16.8743 20.9749 14.3995 22 11.5 22C7.30273 22 3.68067 19.5372 2 15.9779L2 19.5C2 19.7761 1.77614 20 1.5 20C1.22386 20 1 19.7761 1 19.5L1 11.5Z">
</path>
<path  fill-rule="evenodd"  stroke="rgba(255, 255, 255, 1)" stroke-width="2"    d="M21 11.5C21 6.2533 16.7467 2 11.5 2C8.87663 2 6.63744 2.9275 4.78245 4.78249C4.69197 4.87297 4.56697 4.92893 4.4289 4.92893C4.15276 4.92893 3.9289 4.70507 3.9289 4.42893C3.9289 4.29086 3.98486 4.16586 4.07535 4.07538C6.1256 2.02513 8.60049 1 11.5 1C15.6973 1 19.3193 3.46278 21 7.02213L21 3.5C21 3.22386 21.2239 3 21.5 3C21.7761 3 22 3.22386 22 3.5L22 11.5C22 11.7071 21.8741 11.8848 21.6946 11.9607C21.6348 11.986 21.569 12 21.5 12L21.5 12C21.4201 12 21.3445 11.9813 21.2775 11.9479C21.113 11.8661 21 11.6962 21 11.5ZM1 11.5C1 11.2239 1.22386 11 1.5 11C1.77614 11 2 11.2239 2 11.5C2 16.7467 6.2533 21 11.5 21C14.1233 21 16.3625 20.0725 18.2175 18.2175C18.308 18.127 18.433 18.0711 18.5711 18.0711C18.8472 18.0711 19.0711 18.2949 19.0711 18.5711C19.0711 18.7091 19.0151 18.8341 18.9246 18.9246C16.8743 20.9749 14.3995 22 11.5 22C7.30273 22 3.68067 19.5372 2 15.9779L2 19.5C2 19.7761 1.77614 20 1.5 20C1.22386 20 1 19.7761 1 19.5L1 11.5Z">
</path>
</svg>
