<svg xmlns="http://www.w3.org/2000/svg" xmlns:xlink="http://www.w3.org/1999/xlink" width="20" height="20" viewBox="0 0 20 20" fill="none">
<circle cx="10" cy="10" r="10"   fill="#000000" >
</circle>
<path d="M6.64645 7.35356C6.45118 7.1583 6.45118 6.84172 6.64645 6.64646C6.84171 6.4512 7.15829 6.4512 7.35355 6.64646L10 9.29296L12.6464 6.64662C12.8416 6.45136 13.1582 6.45136 13.3535 6.64662C13.5487 6.84188 13.5487 7.15846 13.3535 7.35372L10.7071 10.0001L13.3535 12.6464C13.5487 12.8417 13.5487 13.1582 13.3535 13.3535C13.1582 13.5488 12.8416 13.5488 12.6464 13.3535L10 10.7072L7.35355 13.3537C7.15829 13.5489 6.84171 13.5489 6.64645 13.3537C6.45118 13.1584 6.45118 12.8418 6.64645 12.6466L9.29294 10.0001L6.64645 7.35356Z" fill-rule="evenodd"  fill="#FFFFFF" >
</path>
</svg>
