<svg xmlns="http://www.w3.org/2000/svg" xmlns:xlink="http://www.w3.org/1999/xlink" width="23" height="23" viewBox="0 0 23 23" fill="none">
<path     fill="#FFC300"  d="M11.5 0.5L11.5 0.5C17.5751 0.5 22.5 5.42487 22.5 11.5L22.5 17.5C22.5 20.2614 20.2614 22.5 17.5 22.5L5.5 22.5C2.73858 22.5 0.5 20.2614 0.5 17.5L0.5 11.5C0.5 5.42487 5.42487 0.5 11.5 0.5Z">
</path>
<path   fill="rgba(0, 0, 0, 1)"  d="M11.5 0C17.8513 0 23 5.14873 23 11.5L23 17.5C23 20.5376 20.5376 23 17.5 23L5.5 23C2.46243 23 0 20.5376 0 17.5L0 11.5C0 5.14873 5.14873 0 11.5 0ZM11.5 1C5.70101 1 1 5.70101 1 11.5L1 17.5C1 19.9853 3.01472 22 5.5 22L17.5 22C19.9853 22 22 19.9853 22 17.5L22 11.5C22 5.70101 17.299 1 11.5 1Z">
</path>
<path fill-rule="evenodd"  fill="rgba(0, 0, 0, 1)"  d="M15 20.5L15 16.5C15 14.567 13.433 13 11.5 13C9.567 13 8 14.567 8 16.5L8 20.5C8 20.7761 7.77614 21 7.5 21C7.22386 21 7 20.7761 7 20.5L7 16.5C7 14.0147 9.01472 12 11.5 12C13.9853 12 16 14.0147 16 16.5L16 20.5C16 20.7761 15.7761 21 15.5 21C15.2239 21 15 20.7761 15 20.5Z">
</path>
</svg>
