<svg xmlns="http://www.w3.org/2000/svg" xmlns:xlink="http://www.w3.org/1999/xlink" width="21" height="21" viewBox="0 0 21 21" fill="none">
<path d="M5.5 0L15.5 0C17.9853 0 20 2.01472 20 4.5C20 6.98528 17.9853 9 15.5 9L5.5 9C3.01472 9 1 6.98528 1 4.5C1 2.01472 3.01472 0 5.5 0ZM5.5 1C3.567 1 2 2.567 2 4.5C2 6.433 3.567 8 5.5 8L15.5 8C17.433 8 19 6.433 19 4.5C19 2.567 17.433 1 15.5 1L5.5 1ZM5.5 10L15.5 10C18.5376 10 21 12.4624 21 15.5C21 18.5376 18.5376 21 15.5 21L5.5 21C2.46243 21 0 18.5376 0 15.5C0 12.4624 2.46243 10 5.5 10ZM5.5 11C3.01472 11 1 13.0147 1 15.5C1 17.9853 3.01472 20 5.5 20L15.5 20C17.9853 20 20 17.9853 20 15.5C20 13.0147 17.9853 11 15.5 11L5.5 11Z" fill-rule="evenodd"  fill="#000000" >
</path>
</svg>
