<svg xmlns="http://www.w3.org/2000/svg" xmlns:xlink="http://www.w3.org/1999/xlink" width="21" height="21" viewBox="0 0 21 21" fill="none">
<path d="M17 1L4.5 1C2.567 1 1 2.567 1 4.5L1 16.5C1 18.433 2.567 20 4.5 20L16.5 20C18.433 20 20 18.433 20 16.5L20 3.5C20 3.22386 20.2239 3 20.5 3C20.7761 3 21 3.22386 21 3.5L21 16.5C21 18.9853 18.9853 21 16.5 21L4.5 21C2.01472 21 0 18.9853 0 16.5L0 4.5C0 2.01472 2.01472 0 4.5 0L17.5 0C17.7761 0 18 0.223858 18 0.5L18 17.5C18 17.7761 17.7761 18 17.5 18L4.5 18C4.22386 18 4 17.7761 4 17.5C4 17.2239 4.22386 17 4.5 17L17 17L17 1Z" fill-rule="evenodd"  fill="#000000" >
</path>
</svg>
