<svg xmlns="http://www.w3.org/2000/svg" xmlns:xlink="http://www.w3.org/1999/xlink" width="21" height="21" viewBox="0 0 21 21" fill="none">
<path   fill-rule="evenodd"  fill="#FFC300"  d="M20 10.5C20 5.2533 15.7467 1 10.5 1C7.87663 1 5.63744 1.9275 3.78245 3.78249C3.69197 3.87297 3.56697 3.92893 3.4289 3.92893C3.15276 3.92893 2.9289 3.70507 2.9289 3.42893C2.9289 3.29086 2.98486 3.16586 3.07535 3.07538C5.1256 1.02513 7.60049 0 10.5 0C14.6973 0 18.3193 2.46278 20 6.02213L20 2.5C20 2.22386 20.2239 2 20.5 2C20.7761 2 21 2.22386 21 2.5L21 10.5C21 10.7071 20.8741 10.8848 20.6946 10.9607C20.6348 10.986 20.569 11 20.5 11L20.5 11C20.4201 11 20.3445 10.9813 20.2775 10.9479C20.113 10.8661 20 10.6962 20 10.5ZM0 10.5C0 10.2239 0.223858 10 0.5 10C0.776142 10 1 10.2239 1 10.5C1 15.7467 5.2533 20 10.5 20C13.1233 20 15.3625 19.0725 17.2175 17.2175C17.308 17.127 17.433 17.0711 17.5711 17.0711C17.8472 17.0711 18.0711 17.2949 18.0711 17.5711C18.0711 17.7091 18.0151 17.8341 17.9246 17.9246C15.8743 19.9749 13.3995 21 10.5 21C6.30273 21 2.68067 18.5372 1 14.9779L1 18.5C1 18.7761 0.776142 19 0.5 19C0.223858 19 0 18.7761 0 18.5L0 10.5Z">
</path>
<path   fill-rule="evenodd"  fill="#000000" opacity="0.5" d="M20 10.5C20 5.2533 15.7467 1 10.5 1C7.87663 1 5.63744 1.9275 3.78245 3.78249C3.69197 3.87297 3.56697 3.92893 3.4289 3.92893C3.15276 3.92893 2.9289 3.70507 2.9289 3.42893C2.9289 3.29086 2.98486 3.16586 3.07535 3.07538C5.1256 1.02513 7.60049 0 10.5 0C14.6973 0 18.3193 2.46278 20 6.02213L20 2.5C20 2.22386 20.2239 2 20.5 2C20.7761 2 21 2.22386 21 2.5L21 10.5C21 10.7071 20.8741 10.8848 20.6946 10.9607C20.6348 10.986 20.569 11 20.5 11L20.5 11C20.4201 11 20.3445 10.9813 20.2775 10.9479C20.113 10.8661 20 10.6962 20 10.5ZM0 10.5C0 10.2239 0.223858 10 0.5 10C0.776142 10 1 10.2239 1 10.5C1 15.7467 5.2533 20 10.5 20C13.1233 20 15.3625 19.0725 17.2175 17.2175C17.308 17.127 17.433 17.0711 17.5711 17.0711C17.8472 17.0711 18.0711 17.2949 18.0711 17.5711C18.0711 17.7091 18.0151 17.8341 17.9246 17.9246C15.8743 19.9749 13.3995 21 10.5 21C6.30273 21 2.68067 18.5372 1 14.9779L1 18.5C1 18.7761 0.776142 19 0.5 19C0.223858 19 0 18.7761 0 18.5L0 10.5Z">
</path>
</svg>
