<svg xmlns="http://www.w3.org/2000/svg" xmlns:xlink="http://www.w3.org/1999/xlink" width="22.09759521484375" height="22.09759521484375" viewBox="0 0 22.09759521484375 22.09759521484375" fill="none">
<path d="M18.0391 19.4533C16.1316 21.0434 13.6775 22 11 22C4.92487 22 0 17.0751 0 11C0 4.92487 4.92487 0 11 0C17.0751 0 22 4.92487 22 11C22 13.6775 21.0434 16.1316 19.4533 18.0391L21.7071 20.2929C22.0976 20.6834 22.0976 21.3166 21.7071 21.7071C21.3166 22.0976 20.6834 22.0976 20.2929 21.7071L18.0391 19.4533ZM20 11C20 6.02944 15.9706 2 11 2C6.02944 2 2 6.02944 2 11C2 15.9706 6.02944 20 11 20C15.9706 20 20 15.9706 20 11Z" fill-rule="evenodd"  fill="#000000" >
</path>
</svg>
