<svg xmlns="http://www.w3.org/2000/svg" xmlns:xlink="http://www.w3.org/1999/xlink" width="30" height="30" viewBox="0 0 30 30" fill="none">
<ellipse cx="15.000001907348633" cy="15" rx="15.000001907348633" ry="15"   fill="#FFC300" >
</ellipse>
<path d="M12.9641 7.00063C10.2192 7.01994 8 9.25099 8 12.0003L8 18.0002C8 20.7615 10.2386 23 13 23C13.5523 23 14 22.5523 14 22C14 21.4477 13.5523 21.0001 13 21.0001C11.3431 21.0001 10 19.657 10 18.0002L10 12.0003C10 10.3435 11.3431 9.00044 13 9.00044C13.0092 9.00044 13.0184 9.00031 13.0276 9.00007C14.6717 9.01499 15.9998 10.3523 15.9998 11.9998C15.9998 12.0066 15.9999 12.0133 16 12.02L16 22C16 22.5523 16.4477 23 17 23C17.5523 23 18 22.5523 18 22L18 12.0003C18 11.9928 17.9999 11.9853 17.9997 11.9779C17.9879 9.22664 15.7539 7 12.9998 7C12.9878 7 12.9759 7.00021 12.9641 7.00063ZM21 23C21.5523 23 22 22.5523 22 22L22 12.0003C22 11.4481 21.5523 11.0004 21 11.0004C20.4477 11.0004 20 11.4481 20 12.0003L20 22C20 22.5523 20.4477 23 21 23Z" fill-rule="evenodd"  fill="#000000" >
</path>
</svg>
