<svg xmlns="http://www.w3.org/2000/svg" xmlns:xlink="http://www.w3.org/1999/xlink" width="31" height="31" viewBox="0 0 31 31" fill="none">
<path d="M15.5 31C24.0604 31 31 24.0604 31 15.5C31 6.93959 24.0604 0 15.5 0C6.93959 0 0 6.93959 0 15.5C0 24.0604 6.93959 31 15.5 31ZM15.5 1C23.5081 1 30 7.49187 30 15.5C30 23.5081 23.5081 30 15.5 30C7.49187 30 1 23.5081 1 15.5C1 7.49187 7.49187 1 15.5 1ZM11.5 8C11.2239 8 11 8.22386 11 8.5L11 14.5C11 14.7761 11.2239 15 11.5 15C11.7761 15 12 14.7761 12 14.5L12 8.5C12 8.22386 11.7761 8 11.5 8ZM19.5 8C19.2239 8 19 8.22386 19 8.5L19 14.5C19 14.7761 19.2239 15 19.5 15C19.7761 15 20 14.7761 20 14.5L20 8.5C20 8.22386 19.7761 8 19.5 8ZM9.48975 21.5103C12.8092 24.8297 18.191 24.8297 21.5104 21.5103C21.7057 21.315 22.0223 21.315 22.2175 21.5103C22.4128 21.7055 22.4128 22.0221 22.2175 22.2174C18.5076 25.9273 12.4926 25.9273 8.78265 22.2174C8.58739 22.0221 8.58739 21.7055 8.78265 21.5103C8.97791 21.315 9.29449 21.315 9.48975 21.5103Z" fill-rule="evenodd"  fill="#000000" >
</path>
</svg>
