<svg xmlns="http://www.w3.org/2000/svg" xmlns:xlink="http://www.w3.org/1999/xlink" width="21" height="21" viewBox="0 0 21 21" fill="none">
<path d="M21 5.5C20.9999 2.46242 18.5376 0 15.5 0C13.0147 0 11 2.01472 11 4.5C11 6.81052 12.7413 8.71432 14.9832 8.97065C14.7532 12.1854 12.1854 14.7532 8.97065 14.9832C8.71432 12.7413 6.81052 11 4.5 11C2.01472 11 0 13.0147 0 15.5C0 18.5376 2.46243 21 5.5 21C14.0603 21 20.9999 14.0605 21 5.50025L21 5.5ZM4.5 12C2.567 12 1 13.567 1 15.5C1 17.9853 3.01472 20 5.5 20C13.5081 20 20 13.5081 20 5.5C19.9999 3.0147 17.9853 1 15.5 1C13.567 1 12 2.567 12 4.5C12 6.433 13.567 8 15.5 8C15.7761 8 16 8.22386 16 8.5C16 12.6421 12.6421 16 8.5 16C8.22386 16 8 15.7761 8 15.5C8 13.567 6.433 12 4.5 12ZM0 8.5C0 3.80558 3.80558 0 8.5 0C8.77614 0 9 0.223858 9 0.5C9 0.776142 8.77614 1 8.5 1C4.35786 1 1 4.35786 1 8.5C1 8.77614 0.776142 9 0.5 9C0.223858 9 0 8.77614 0 8.5ZM3 8.5C3 5.46243 5.46243 3 8.5 3C8.77614 3 9 3.22386 9 3.5C9 3.77614 8.77614 4 8.5 4C6.01472 4 4 6.01472 4 8.5C4 8.77614 3.77614 9 3.5 9C3.22386 9 3 8.77614 3 8.5ZM6 8.5C6 7.11929 7.11929 6 8.5 6C8.77614 6 9 6.22386 9 6.5C9 6.77614 8.77614 7 8.5 7C7.67157 7 7 7.67157 7 8.5C7 8.77614 6.77614 9 6.5 9C6.22386 9 6 8.77614 6 8.5Z" fill-rule="evenodd"  fill="#000000" >
</path>
</svg>
