<svg xmlns="http://www.w3.org/2000/svg" xmlns:xlink="http://www.w3.org/1999/xlink" width="31" height="31" viewBox="0 0 31 31" fill="none">
<path d="M15.5 0C21.299 0 26 4.70101 26 10.5L26 15.5C26 21.299 21.299 26 15.5 26C9.70101 26 5 21.299 5 15.5L5 10.5C5 4.70101 9.70101 0 15.5 0ZM15.5 1C10.2533 1 6 5.2533 6 10.5L6 15.5C6 20.7467 10.2533 25 15.5 25C20.7467 25 25 20.7467 25 15.5L25 10.5C25 5.2533 20.7467 1 15.5 1ZM15.5 30C7.49187 30 1 23.5081 1 15.5C1 15.2239 0.776142 15 0.5 15C0.223858 15 0 15.2239 0 15.5C0 24.0604 6.93959 31 15.5 31C24.0604 31 31 24.0604 31 15.5C31 15.2239 30.7761 15 30.5 15C30.2239 15 30 15.2239 30 15.5C30 23.5081 23.5081 30 15.5 30Z" fill-rule="evenodd"  fill="#000000" >
</path>
</svg>
